<svg width="1920" height="1197" viewBox="0 0 1920 1197" fill="none" xmlns="http://www.w3.org/2000/svg">
<path d="M428.5 940C245.7 1056.8 51.3333 1019 -23 985.5L-14 97.5C648.667 95.3333 1974 92.3 1974 97.5C1974 102.7 2021 220 2044.5 278L2249.36 941.733C2307.79 1006.98 2340.16 1092.07 2328 1196.5L2249.36 941.733C2084.27 757.379 1711.08 731.473 1546 875.5C1348.6 1047.73 1125 1045.5 946 977.5C813.691 927.237 657 794 428.5 940Z" fill="#003DDD"/>
<path d="M444.5 877.371C261.7 994.171 67.3333 956.371 -7 922.871L2 34.8712C664.667 32.7045 1990 29.6712 1990 34.8712C1990 40.0712 2037 157.371 2060.5 215.371L2265.36 879.104C2323.79 944.35 2356.16 1029.44 2344 1133.87L2265.36 879.104C2100.27 694.75 1727.08 668.844 1562 812.871C1364.6 985.103 1141 982.871 962 914.871C829.691 864.609 673 731.371 444.5 877.371Z" fill="#0547F2"/>
<path d="M356.763 512.323C205.929 668.232 8.09002 676.406 -71.9755 661.005L-268.58 -205.005C375.622 -360.362 1664.33 -669.812 1665.53 -664.753C1666.73 -659.694 1739.58 -556.443 1775.86 -505.45L2128.67 92.9127C2200.6 142.877 2251.76 218.179 2264.09 322.588L2128.67 92.9127C1925.42 -48.2645 1556.35 12.8383 1429.05 191.137C1276.83 404.352 1058.78 453.89 868.906 429.129C728.56 410.827 545.304 317.438 356.763 512.323Z" fill="#003BD9"/>
<path opacity="0.1" d="M86.4433 401.62C-8.88465 596.48 -194.535 665.337 -275.444 675.408L-729.82 -87.5902C-165.058 -434.253 965.144 -1126.47 967.85 -1122.03C970.556 -1117.59 1071.73 -1041.87 1121.98 -1004.57L1642.29 -544.37C1726.13 -519.056 1798.05 -463.23 1842.01 -367.726L1642.29 -544.37C1405.38 -615.897 1073.21 -443.83 1007.18 -234.941C928.225 14.8553 736.122 129.295 547.88 164.367C408.74 190.29 205.603 158.044 86.4433 401.62Z" fill="white"/>
<path opacity="0.3" d="M361.763 640.323C210.929 796.232 13.09 804.406 -66.9755 789.005L-263.58 -77.0046C380.622 -232.362 1669.33 -541.812 1670.53 -536.753C1671.73 -531.694 1744.58 -428.443 1780.86 -377.45L2133.67 220.913C2205.6 270.877 2256.76 346.179 2269.09 450.588L2133.67 220.913C1930.42 79.7355 1561.35 140.838 1434.05 319.137C1281.83 532.352 1063.78 581.89 873.906 557.129C733.56 538.827 550.304 445.438 361.763 640.323Z" fill="#003BD9"/>
<g clip-path="url(#clip0_458_2)">
<path d="M1926.17 657.01C1926.17 657.01 1926.15 657 1926.12 656.97C1926.1 656.96 1926.08 656.94 1926.06 656.92C1926.05 656.92 1926.03 656.9 1926.02 656.89C1926 656.88 1925.99 656.86 1926.02 656.87C1926.11 656.85 1926.45 657.13 1926.08 656.79C1925.64 656.36 1924.93 655.64 1924.01 654.77C1922.17 653.01 1919.46 650.55 1916.02 647.83C1914.29 646.49 1912.4 645.04 1910.33 643.62C1897.9 635.1 1883.88 628.93 1869.2 625.53C1861.68 623.79 1833.91 616.33 1833.66 630.29C1833.53 637.36 1838.5 637.71 1843.9 637.58C1851.14 637.41 1858.39 637.84 1865.56 638.9C1881.54 641.26 1897.1 646.49 1910.7 655.2C1914.08 657.41 1916.77 659.44 1918.62 660.91C1919.55 661.65 1920.26 662.24 1920.8 662.68C1920.92 662.78 1921.65 663.38 1921.99 663.59C1922.16 663.7 1922.24 663.75 1922.24 663.75C1924.05 664.91 1926.46 664.38 1927.61 662.57C1928.7 660.86 1928.29 658.61 1926.71 657.4L1926.18 656.99L1926.17 657.01Z" fill="#E261A5"/>
<g style="mix-blend-mode:multiply" opacity="0.3">
<path d="M1927.52 661.7L1926.99 661.29C1926.99 661.29 1926.97 661.28 1926.94 661.25C1926.92 661.24 1926.9 661.22 1926.88 661.2C1926.87 661.2 1926.85 661.18 1926.84 661.17C1926.82 661.16 1926.81 661.14 1926.84 661.15C1926.93 661.13 1927.27 661.41 1926.9 661.07C1926.46 660.64 1925.75 659.92 1924.83 659.05C1922.99 657.29 1920.28 654.83 1916.84 652.11C1915.11 650.77 1913.22 649.32 1911.15 647.9C1898.72 639.38 1884.7 633.21 1870.02 629.81C1862.51 628.08 1834.86 620.64 1834.49 634.48C1833.94 633.45 1833.64 632.08 1833.67 630.28C1833.92 616.31 1861.69 623.78 1869.21 625.52C1883.89 628.91 1897.91 635.09 1910.34 643.61C1912.41 645.03 1914.3 646.48 1916.03 647.82C1919.47 650.54 1922.18 652.99 1924.02 654.76C1924.94 655.63 1925.65 656.35 1926.09 656.78C1926.46 657.12 1926.12 656.84 1926.03 656.86C1926 656.86 1926.02 656.86 1926.03 656.88C1926.04 656.89 1926.06 656.9 1926.07 656.91C1926.1 656.93 1926.12 656.95 1926.13 656.96C1926.16 656.99 1926.18 657 1926.18 657L1926.71 657.41C1928.13 658.5 1928.6 660.42 1927.9 662.03C1927.78 661.91 1927.66 661.8 1927.53 661.7H1927.52Z" fill="#E261A5"/>
</g>
<path d="M1837.48 635.46C1838.65 635.44 1839.57 633.21 1839.54 630.48C1839.5 627.74 1838.52 625.54 1837.35 625.55C1836.18 625.57 1835.26 627.8 1835.29 630.53C1835.33 633.27 1836.31 635.47 1837.48 635.46Z" fill="#AA497D"/>
<path d="M1932.71 655.77C1932.71 655.77 1932.67 655.28 1932.58 654.36C1932.49 653.46 1932.35 652.16 1932.15 650.52C1928.1 616.74 1916.66 578.28 1890.43 554.89C1885.48 550.48 1875.58 541.19 1869.79 549.55C1865.87 555.21 1871.45 560 1875.85 563.34C1894.17 577.25 1904.43 595.86 1912.39 616.94C1912.96 618.56 1913.51 620.16 1914.04 621.75C1915.07 624.93 1916.02 628.02 1916.83 630.98C1917.66 633.94 1918.36 636.76 1918.99 639.37C1919.6 641.98 1920.13 644.39 1920.55 646.53C1920.99 648.67 1921.32 650.53 1921.59 652.07C1921.85 653.6 1922.04 654.81 1922.15 655.62C1922.26 656.41 1922.32 656.84 1922.32 656.84L1922.34 656.97C1922.74 659.83 1925.37 661.82 1928.23 661.42C1931 661.04 1932.96 658.53 1932.71 655.77Z" fill="#E261A5"/>
<g style="mix-blend-mode:multiply" opacity="0.3">
<path d="M1928.83 655.36C1928.83 655.36 1928.79 654.87 1928.7 653.95C1928.61 653.05 1928.47 651.75 1928.27 650.11C1924.22 616.33 1912.78 577.87 1886.55 554.48C1883.67 551.91 1879.1 547.68 1874.64 546.26C1880.13 545.44 1886.69 551.55 1890.43 554.89C1916.66 578.28 1928.1 616.74 1932.15 650.52C1932.35 652.17 1932.49 653.46 1932.58 654.36C1932.66 655.28 1932.71 655.77 1932.71 655.77C1932.96 658.53 1931 661.03 1928.23 661.42C1927.1 661.58 1926 661.35 1925.06 660.85C1927.44 660.17 1929.05 657.87 1928.83 655.36Z" fill="#E261A5"/>
</g>
<path d="M1925.31 663.25C1925.31 663.25 1925.3 663.13 1925.28 662.91C1925.25 662.68 1925.21 662.33 1925.16 661.88C1925.05 661.01 1924.89 659.77 1924.62 658.22C1919.56 629.01 1902.84 603.27 1878.71 586.24C1878.39 586.04 1878.07 585.84 1877.76 585.64C1871.37 581.61 1852.12 567.72 1847.13 579.45C1843.14 588.85 1855.03 590.62 1860.91 593.27C1868.18 596.55 1875.03 600.74 1881.28 605.69C1895.5 616.93 1906.04 631.73 1912.44 648.63C1914.16 653.25 1915.29 657.22 1915.95 659.99C1916.29 661.38 1916.51 662.46 1916.65 663.19C1916.71 663.53 1916.76 663.8 1916.79 663.98C1916.82 664.17 1916.84 664.26 1916.84 664.26L1916.86 664.36C1917.24 666.68 1919.43 668.26 1921.76 667.88C1923.98 667.52 1925.52 665.48 1925.32 663.27L1925.31 663.25Z" fill="#E261A5"/>
<g style="mix-blend-mode:multiply" opacity="0.3">
<path d="M1925.03 661.89C1919.97 632.68 1903.25 606.94 1879.12 589.91C1878.8 589.71 1878.48 589.51 1878.17 589.31C1871.78 585.28 1852.53 571.39 1847.54 583.12C1847.2 583.92 1846.98 584.67 1846.86 585.37C1846.14 583.81 1846.1 581.89 1847.13 579.44C1852.12 567.71 1871.37 581.6 1877.76 585.63C1878.07 585.83 1878.39 586.03 1878.71 586.23C1902.84 603.25 1919.56 629 1924.62 658.21C1924.89 659.77 1925.06 661.01 1925.16 661.87C1925.21 662.32 1925.25 662.67 1925.28 662.9C1925.3 663.13 1925.31 663.24 1925.31 663.24C1925.32 663.4 1925.33 663.56 1925.32 663.72C1925.24 663.17 1925.14 662.55 1925.02 661.88L1925.03 661.89Z" fill="#E261A5"/>
</g>
<path d="M1932.89 664.79C1932.89 664.79 1932.94 664.25 1933.03 663.23C1933.12 662.22 1933.23 660.75 1933.37 658.87C1935.07 634.75 1934.99 610.38 1931.57 586.41C1929.84 574.32 1927.26 562.34 1923.54 550.7C1921.24 543.5 1915.37 518.9 1903.57 524.96C1893.2 530.28 1905.87 545.99 1908.71 552.85C1919.26 578.36 1922.92 605.9 1924.59 633.26C1924.81 636.85 1924.94 640.25 1925.06 643.39C1925.26 649.67 1925.29 654.91 1925.26 658.56C1925.24 660.39 1925.22 661.82 1925.19 662.79C1925.16 663.75 1925.15 664.26 1925.15 664.26V664.33C1925.08 666.47 1926.77 668.26 1928.91 668.33C1930.97 668.39 1932.71 666.82 1932.89 664.8V664.79Z" fill="#E261A5"/>
<path d="M1901.23 530.94C1901.68 532.02 1904.09 532.05 1906.62 531C1909.15 529.95 1910.83 528.22 1910.38 527.14C1909.93 526.06 1907.52 526.03 1904.99 527.08C1902.46 528.13 1900.78 529.86 1901.23 530.94Z" fill="#AA497D"/>
<path d="M1870.07 555.49C1871 556.21 1873.11 555.04 1874.79 552.88C1876.47 550.72 1877.08 548.38 1876.16 547.66C1875.24 546.94 1873.12 548.11 1871.44 550.27C1869.76 552.43 1869.15 554.77 1870.07 555.49Z" fill="#AA497D"/>
<path d="M1849.39 586.17C1850.5 586.54 1852.11 584.73 1852.97 582.14C1853.83 579.54 1853.63 577.14 1852.52 576.77C1851.41 576.4 1849.8 578.21 1848.94 580.8C1848.08 583.4 1848.28 585.8 1849.39 586.17Z" fill="#AA497D"/>
<path d="M1835.19 784C1835.19 784 1792.28 769.74 1802.6 749.11C1812.12 730.08 1843.84 764.97 1843.84 764.97C1843.84 764.97 1788 685.75 1812.12 673.55C1836.63 661.15 1859.42 756.32 1859.42 756.32C1859.42 756.32 1823.66 628.85 1855.38 621.93C1887.1 615.01 1881.33 755.16 1881.33 755.16C1881.33 755.16 1864.03 611.54 1907.86 608.66C1951.69 605.78 1920.55 784 1920.55 784H1835.19Z" fill="url(#paint0_linear_458_2)"/>
<path style="mix-blend-mode:screen" opacity="0.2" d="M1908.37 630.67C1884.37 629.67 1880.04 765.67 1880.04 765.67C1880.04 765.67 1869.71 641.34 1859.71 654C1849.71 666.67 1863.38 774.33 1863.38 774.33C1863.38 774.33 1829.38 694 1826.71 706C1824.04 718 1854.71 779.33 1854.71 779.33C1854.71 779.33 1817.71 749.66 1814.04 757.66C1811.22 763.81 1832.03 777.83 1841.81 783.99H1912.08C1915.56 755.76 1929.63 631.54 1908.36 630.66L1908.37 630.67Z" fill="url(#paint1_linear_458_2)"/>
</g>
<g opacity="0.4">
<path d="M1706.1 411.683C1705.82 409.129 1704.71 407.238 1703.72 405.573C1703.61 405.379 1703.49 405.185 1703.38 404.991C1701.87 402.389 1701.72 398.994 1702.92 394.307C1704.6 387.76 1702.8 381.424 1698.1 377.382C1696.68 376.17 1694.22 373.632 1693.56 370.367C1693.08 367.991 1693.28 365.049 1693.48 362.22C1693.48 362.156 1693.48 362.091 1693.49 362.026C1694.22 361.137 1694.75 360.361 1695.06 359.86C1696.2 357.937 1692.78 357.727 1690.98 354.736C1689.19 351.746 1690.35 327.871 1674.87 332.365C1659.39 336.858 1668.89 358.163 1668.4 361.364C1667.9 364.564 1665.46 367.991 1665.46 367.991C1666.25 370.464 1668.14 371.579 1670.52 371.87C1671.65 375.54 1670.66 379.403 1669.54 383.784C1669.41 384.317 1669.27 384.834 1669.15 385.351C1668.47 388.099 1667.88 391.736 1669.32 395.648C1670.34 398.428 1671.95 400.11 1673.49 401.742C1673.98 402.259 1674.45 402.76 1674.9 403.294C1676.53 405.201 1676.63 406.543 1676.51 407.577C1676.38 408.644 1675.89 409.743 1675.38 410.891C1674.97 411.813 1674.55 412.782 1674.23 413.865C1672.06 421.236 1677.2 426.684 1680.78 429.949C1680.76 430.563 1680.92 431.21 1681.26 431.695C1681.62 432.196 1682.09 432.438 1682.57 432.438C1683.01 432.438 1683.45 432.228 1683.79 431.808C1684.37 431.097 1684.7 430.175 1684.74 429.157C1684.76 428.349 1684.47 427.573 1683.95 427.104L1683.84 427.007C1679.81 423.419 1676.3 419.846 1677.57 415.547C1677.79 414.819 1678.12 414.059 1678.48 413.251C1679.11 411.829 1679.82 410.228 1680.06 408.273C1680.43 405.153 1679.53 402.373 1677.31 399.77C1676.79 399.156 1676.26 398.59 1675.74 398.057C1674.39 396.634 1673.23 395.406 1672.55 393.579C1671.82 391.623 1671.84 389.716 1672.55 386.774C1672.67 386.257 1672.81 385.756 1672.93 385.238C1673.99 381.052 1675.16 376.445 1674.25 371.773C1675.22 371.644 1676.21 371.466 1677.21 371.224C1676.63 373.115 1676.06 375.071 1675.96 377.431C1675.8 381.569 1676.64 385.885 1678.37 389.942C1678.74 390.815 1679.17 391.639 1679.58 392.448C1680.48 394.226 1681.33 395.907 1681.5 397.701C1681.61 398.768 1681.34 399.948 1681.03 401.306C1680.76 402.518 1680.45 403.892 1680.39 405.363C1680.28 408.45 1680.45 412.491 1682.73 416.274C1683.31 417.228 1683.86 418.003 1684.41 418.763C1685.52 420.315 1686.39 421.543 1686.93 423.596C1687.67 426.344 1687.57 428.526 1687.17 431.355C1686.7 434.637 1687.25 441.474 1690.72 443.107C1690.91 443.204 1691.12 443.252 1691.32 443.252C1692.06 443.252 1692.74 442.654 1693.01 441.7C1693.34 440.472 1692.86 439.13 1691.94 438.694C1690.95 438.225 1690.36 434.491 1690.69 432.228C1691.19 428.785 1691.31 425.746 1690.31 422.028C1689.51 419.054 1688.24 417.276 1687.02 415.547C1686.53 414.851 1686.02 414.14 1685.54 413.348C1684.3 411.295 1683.84 409.032 1683.96 405.557C1684 404.652 1684.22 403.666 1684.46 402.615C1684.83 400.982 1685.25 399.123 1685.04 397.071C1684.75 394.193 1683.57 391.866 1682.53 389.829C1682.15 389.069 1681.78 388.342 1681.47 387.614C1680.07 384.349 1679.39 380.906 1679.53 377.657C1679.59 375.96 1680.06 374.44 1680.6 372.662C1680.66 372.468 1680.77 372.177 1680.88 371.887C1681.09 371.305 1681.34 370.674 1681.51 369.995C1682.09 369.817 1682.64 369.624 1683.19 369.446C1683.36 369.381 1683.54 369.316 1683.72 369.252C1683.36 371.693 1683.09 374.489 1683.43 377.108C1683.89 380.599 1685.71 383.832 1687.18 386.434C1687.37 386.774 1687.55 387.097 1687.72 387.42C1687.98 387.889 1688.24 388.342 1688.51 388.794C1689.57 390.637 1690.58 392.367 1690.88 394.339C1691.1 395.826 1690.9 397.847 1690.26 400.514C1688.39 408.289 1690.79 413.574 1693.4 417.713C1694.76 419.862 1695.7 422.255 1696.21 424.825C1696.42 425.892 1696.46 427.056 1696.49 428.3C1696.52 429.739 1696.56 431.242 1696.88 432.81C1697.09 433.861 1697.82 434.572 1698.62 434.572C1698.77 434.572 1698.93 434.54 1699.07 434.491C1700.04 434.168 1700.6 432.875 1700.36 431.614C1700.15 430.547 1700.11 429.383 1700.08 428.139C1700.05 426.7 1700.01 425.213 1699.69 423.645C1699.05 420.412 1697.87 417.405 1696.18 414.722C1693.24 410.067 1692.57 406.591 1693.69 401.936C1694.22 399.754 1694.86 396.489 1694.4 393.45C1693.95 390.395 1692.58 388.035 1691.37 385.95C1691.12 385.513 1690.87 385.093 1690.63 384.656C1690.45 384.333 1690.26 383.994 1690.06 383.638C1688.76 381.327 1687.28 378.692 1686.96 376.299C1686.6 373.584 1687.2 370.141 1687.64 367.603C1687.66 367.474 1687.67 367.344 1687.67 367.199C1688.36 366.746 1689.02 366.261 1689.63 365.76C1689.58 367.7 1689.66 369.672 1690.04 371.531C1690.96 376.057 1693.82 379.322 1696.08 381.278C1698.01 382.943 1701.02 386.677 1699.47 392.787C1697.89 398.994 1698.21 403.908 1700.47 407.804C1700.59 408.014 1700.7 408.208 1700.82 408.418C1701.6 409.743 1702.34 410.988 1702.49 412.33C1702.55 412.831 1702.45 413.461 1702.35 414.173C1702.23 414.981 1702.11 415.902 1702.14 416.937C1702.19 418.197 1702.98 419.167 1703.93 419.167C1703.97 419.167 1703.99 419.167 1704.03 419.167C1705.01 419.103 1705.78 417.987 1705.73 416.694C1705.72 416.242 1705.79 415.692 1705.88 415.062C1706.03 414.076 1706.19 412.944 1706.04 411.651L1706.1 411.683Z" fill="#5FDAE6"/>
<path d="M1678.35 466.303C1678.08 463.829 1677 462.003 1676.05 460.386C1675.94 460.193 1675.83 460.015 1675.72 459.821C1674.26 457.299 1674.13 454.018 1675.27 449.476C1676.89 443.123 1675.15 436.997 1670.61 433.069C1669.25 431.889 1666.86 429.432 1666.21 426.263C1665.75 423.968 1665.94 421.123 1666.13 418.359C1666.13 418.294 1666.13 418.23 1666.14 418.165C1666.84 417.308 1667.36 416.565 1667.66 416.064C1668.77 414.205 1665.45 413.995 1663.71 411.101C1661.97 408.208 1663.11 385.077 1648.11 389.425C1633.11 393.773 1642.32 414.415 1641.85 417.519C1641.38 420.622 1639 423.936 1639 423.936C1639.76 426.344 1641.59 427.411 1643.91 427.702C1645 431.258 1644.05 434.992 1642.97 439.243C1642.85 439.745 1642.71 440.262 1642.59 440.763C1641.93 443.414 1641.35 446.954 1642.76 450.736C1643.76 453.42 1645.3 455.052 1646.8 456.636C1647.28 457.137 1647.74 457.622 1648.17 458.14C1649.75 459.999 1649.83 461.276 1649.72 462.294C1649.6 463.328 1649.13 464.379 1648.63 465.511C1648.23 466.416 1647.81 467.337 1647.5 468.388C1645.41 475.532 1650.39 480.802 1653.85 483.97C1653.83 484.568 1653.98 485.183 1654.32 485.668C1654.67 486.152 1655.12 486.395 1655.59 486.395C1656.02 486.395 1656.44 486.185 1656.77 485.781C1657.34 485.086 1657.66 484.197 1657.69 483.211C1657.71 482.419 1657.43 481.675 1656.92 481.222L1656.81 481.125C1652.9 477.65 1649.5 474.191 1650.73 470.037C1650.94 469.325 1651.26 468.598 1651.62 467.822C1652.24 466.448 1652.93 464.896 1653.15 463.005C1653.51 459.982 1652.63 457.299 1650.49 454.761C1649.98 454.163 1649.46 453.63 1648.97 453.096C1647.66 451.722 1646.53 450.526 1645.88 448.748C1645.17 446.857 1645.17 445.014 1645.88 442.153C1646 441.652 1646.12 441.167 1646.25 440.666C1647.28 436.609 1648.42 432.147 1647.53 427.621C1648.47 427.508 1649.43 427.314 1650.4 427.088C1649.85 428.914 1649.29 430.822 1649.21 433.101C1649.06 437.11 1649.86 441.296 1651.53 445.208C1651.89 446.049 1652.31 446.857 1652.71 447.633C1653.58 449.346 1654.39 450.979 1654.58 452.725C1654.68 453.759 1654.42 454.891 1654.12 456.216C1653.86 457.396 1653.56 458.722 1653.51 460.144C1653.4 463.134 1653.56 467.046 1655.77 470.716C1656.33 471.637 1656.87 472.397 1657.39 473.14C1658.46 474.643 1659.31 475.84 1659.84 477.828C1660.56 480.479 1660.47 482.596 1660.08 485.344C1659.62 488.529 1660.16 495.14 1663.52 496.74C1663.71 496.837 1663.91 496.869 1664.11 496.869C1664.82 496.869 1665.49 496.288 1665.73 495.366C1666.05 494.186 1665.6 492.877 1664.69 492.457C1663.74 492.004 1663.16 488.399 1663.48 486.185C1663.96 482.855 1664.07 479.897 1663.11 476.308C1662.33 473.431 1661.11 471.702 1659.92 470.037C1659.44 469.374 1658.95 468.679 1658.49 467.903C1657.29 465.915 1656.85 463.716 1656.96 460.354C1656.99 459.481 1657.2 458.528 1657.44 457.509C1657.8 455.925 1658.2 454.131 1658.01 452.143C1657.72 449.346 1656.59 447.099 1655.59 445.127C1655.22 444.384 1654.86 443.689 1654.55 442.977C1653.2 439.809 1652.55 436.479 1652.67 433.327C1652.73 431.679 1653.19 430.208 1653.72 428.494C1653.78 428.3 1653.88 428.025 1653.99 427.734C1654.2 427.185 1654.43 426.554 1654.59 425.908C1655.15 425.73 1655.69 425.552 1656.21 425.374C1656.38 425.31 1656.55 425.261 1656.71 425.197C1656.35 427.573 1656.11 430.272 1656.44 432.81C1656.88 436.188 1658.66 439.324 1660.08 441.846C1660.26 442.169 1660.43 442.493 1660.61 442.8C1660.85 443.252 1661.11 443.689 1661.37 444.141C1662.41 445.919 1663.38 447.6 1663.66 449.524C1663.88 450.979 1663.69 452.919 1663.06 455.505C1661.25 463.037 1663.58 468.162 1666.1 472.17C1667.41 474.255 1668.32 476.567 1668.83 479.056C1669.04 480.091 1669.06 481.222 1669.1 482.419C1669.14 483.825 1669.17 485.263 1669.48 486.783C1669.69 487.801 1670.39 488.48 1671.16 488.48C1671.3 488.48 1671.45 488.448 1671.6 488.399C1672.52 488.076 1673.08 486.831 1672.85 485.619C1672.64 484.585 1672.61 483.453 1672.57 482.257C1672.54 480.867 1672.5 479.428 1672.19 477.909C1671.58 474.773 1670.43 471.863 1668.79 469.261C1665.94 464.751 1665.29 461.389 1666.39 456.879C1666.89 454.761 1667.52 451.609 1667.09 448.651C1666.65 445.693 1665.33 443.414 1664.16 441.393C1663.91 440.973 1663.68 440.553 1663.44 440.133C1663.27 439.809 1663.08 439.486 1662.89 439.146C1661.62 436.9 1660.19 434.362 1659.88 432.034C1659.53 429.416 1660.11 426.053 1660.54 423.613C1660.57 423.483 1660.58 423.354 1660.58 423.225C1661.26 422.788 1661.89 422.319 1662.48 421.834C1662.43 423.71 1662.5 425.617 1662.87 427.427C1663.76 431.824 1666.55 434.976 1668.72 436.867C1670.59 438.484 1673.51 442.088 1671.99 448.021C1670.47 454.034 1670.77 458.786 1672.96 462.569C1673.07 462.763 1673.19 462.973 1673.3 463.167C1674.05 464.444 1674.77 465.656 1674.92 466.949C1674.97 467.434 1674.88 468.048 1674.78 468.743C1674.67 469.536 1674.53 470.425 1674.57 471.427C1674.62 472.639 1675.38 473.593 1676.31 473.593C1676.33 473.593 1676.37 473.593 1676.4 473.593C1677.36 473.528 1678.08 472.461 1678.03 471.2C1678.02 470.748 1678.1 470.231 1678.18 469.616C1678.32 468.646 1678.48 467.563 1678.34 466.319L1678.35 466.303Z" fill="#5FDAE6"/>
<path d="M1746.18 455.99C1745.93 453.775 1744.97 452.143 1744.12 450.704C1744.02 450.542 1743.93 450.365 1743.83 450.203C1742.52 447.956 1742.4 445.014 1743.43 440.941C1744.89 435.267 1743.32 429.771 1739.25 426.263C1738.03 425.213 1735.89 423.014 1735.31 420.17C1734.89 418.117 1735.06 415.563 1735.24 413.106C1735.24 413.041 1735.24 412.993 1735.24 412.944C1735.87 412.168 1736.33 411.505 1736.59 411.069C1737.58 409.404 1734.61 409.21 1733.06 406.624C1731.5 404.021 1732.51 383.331 1719.09 387.227C1705.67 391.122 1713.91 409.598 1713.48 412.378C1713.06 415.159 1710.94 418.133 1710.94 418.133C1711.62 420.283 1713.26 421.236 1715.33 421.495C1716.32 424.679 1715.45 428.025 1714.49 431.824C1714.38 432.277 1714.26 432.729 1714.15 433.198C1713.56 435.574 1713.05 438.742 1714.3 442.137C1715.18 444.545 1716.58 446 1717.91 447.423C1718.34 447.875 1718.75 448.312 1719.14 448.764C1720.54 450.429 1720.63 451.577 1720.52 452.482C1720.41 453.403 1719.99 454.357 1719.55 455.359C1719.19 456.168 1718.82 456.992 1718.54 457.946C1716.65 464.347 1721.11 469.067 1724.22 471.896C1724.19 472.429 1724.33 472.979 1724.64 473.415C1724.94 473.851 1725.35 474.062 1725.77 474.062C1726.15 474.062 1726.53 473.884 1726.83 473.512C1727.34 472.898 1727.62 472.089 1727.64 471.217C1727.67 470.505 1727.41 469.843 1726.97 469.439L1726.87 469.358C1723.37 466.254 1720.32 463.151 1721.42 459.417C1721.6 458.786 1721.9 458.123 1722.21 457.428C1722.75 456.2 1723.38 454.81 1723.58 453.113C1723.9 450.413 1723.11 448.005 1721.2 445.742C1720.74 445.208 1720.29 444.723 1719.84 444.254C1718.67 443.01 1717.66 441.943 1717.07 440.359C1716.44 438.662 1716.44 437.013 1717.07 434.459C1717.18 434.022 1717.29 433.57 1717.4 433.133C1718.33 429.513 1719.34 425.504 1718.55 421.446C1719.39 421.333 1720.25 421.172 1721.11 420.978C1720.61 422.61 1720.11 424.308 1720.04 426.36C1719.9 429.949 1720.62 433.699 1722.12 437.207C1722.44 437.966 1722.81 438.678 1723.17 439.389C1723.95 440.925 1724.69 442.379 1724.85 443.947C1724.93 444.869 1724.71 445.887 1724.44 447.067C1724.21 448.118 1723.93 449.314 1723.88 450.591C1723.79 453.274 1723.93 456.766 1725.92 460.063C1726.41 460.888 1726.9 461.566 1727.37 462.229C1728.33 463.571 1729.09 464.638 1729.57 466.432C1730.21 468.808 1730.12 470.699 1729.78 473.172C1729.37 476.017 1729.85 481.95 1732.86 483.372C1733.03 483.453 1733.22 483.502 1733.39 483.502C1734.03 483.502 1734.62 482.984 1734.85 482.16C1735.15 481.093 1734.73 479.929 1733.92 479.541C1733.07 479.137 1732.55 475.904 1732.83 473.932C1733.26 470.958 1733.36 468.307 1732.5 465.09C1731.81 462.504 1730.71 460.968 1729.65 459.465C1729.22 458.867 1728.79 458.253 1728.37 457.558C1727.3 455.763 1726.9 453.808 1727 450.801C1727.03 450.025 1727.23 449.152 1727.43 448.247C1727.76 446.825 1728.11 445.224 1727.94 443.43C1727.69 440.925 1726.67 438.92 1725.77 437.142C1725.44 436.479 1725.12 435.849 1724.85 435.219C1723.63 432.39 1723.05 429.399 1723.16 426.571C1723.22 425.1 1723.63 423.774 1724.09 422.239C1724.14 422.061 1724.24 421.818 1724.34 421.56C1724.53 421.059 1724.74 420.509 1724.88 419.927C1725.38 419.765 1725.87 419.604 1726.34 419.458C1726.49 419.41 1726.65 419.345 1726.79 419.297C1726.47 421.414 1726.25 423.839 1726.55 426.102C1726.94 429.125 1728.53 431.937 1729.8 434.184C1729.96 434.475 1730.12 434.75 1730.28 435.041C1730.5 435.445 1730.74 435.833 1730.97 436.237C1731.9 437.837 1732.77 439.34 1733.03 441.054C1733.23 442.347 1733.04 444.093 1732.49 446.404C1730.86 453.145 1732.96 457.736 1735.21 461.324C1736.38 463.183 1737.21 465.268 1737.64 467.499C1737.82 468.42 1737.85 469.439 1737.87 470.505C1737.91 471.75 1737.94 473.059 1738.22 474.417C1738.4 475.339 1739.03 475.937 1739.72 475.937C1739.86 475.937 1739.98 475.92 1740.12 475.872C1740.94 475.581 1741.45 474.466 1741.23 473.383C1741.04 472.461 1741.02 471.443 1740.99 470.36C1740.96 469.115 1740.93 467.822 1740.66 466.464C1740.11 463.652 1739.08 461.049 1737.62 458.722C1735.08 454.68 1734.48 451.674 1735.46 447.633C1735.91 445.742 1736.48 442.913 1736.09 440.262C1735.69 437.611 1734.51 435.574 1733.46 433.764C1733.24 433.392 1733.03 433.02 1732.82 432.632C1732.66 432.341 1732.5 432.05 1732.33 431.759C1731.19 429.755 1729.91 427.476 1729.64 425.407C1729.33 423.063 1729.85 420.056 1730.23 417.874C1730.26 417.761 1730.26 417.648 1730.27 417.535C1730.87 417.147 1731.44 416.726 1731.97 416.29C1731.93 417.971 1732 419.685 1732.33 421.285C1733.13 425.213 1735.62 428.042 1737.57 429.739C1739.24 431.194 1741.86 434.41 1740.5 439.728C1739.13 445.111 1739.41 449.379 1741.36 452.741C1741.46 452.919 1741.57 453.096 1741.67 453.274C1742.35 454.422 1742.99 455.505 1743.11 456.669C1743.16 457.105 1743.09 457.639 1742.99 458.269C1742.89 458.98 1742.77 459.772 1742.8 460.661C1742.85 461.744 1743.53 462.601 1744.36 462.601C1744.38 462.601 1744.41 462.601 1744.44 462.601C1745.31 462.536 1745.96 461.583 1745.91 460.451C1745.9 460.047 1745.96 459.578 1746.05 459.029C1746.17 458.172 1746.32 457.186 1746.19 456.071L1746.18 455.99Z" fill="#5FDAE6"/>
</g>
<g clip-path="url(#clip1_458_2)">
<path d="M5.90137 978.06C5.90137 978.06 5.92137 978.04 5.97137 978C5.99137 977.98 6.03137 977.96 6.06137 977.93C6.08137 977.92 6.10137 977.9 6.12137 977.88C6.15137 977.86 6.17137 977.84 6.13137 977.86C6.01137 977.84 5.52137 978.24 6.05137 977.75C6.68137 977.13 7.71137 976.1 9.03137 974.85C11.6714 972.32 15.5714 968.79 20.5014 964.89C22.9914 962.96 25.7014 960.89 28.6814 958.84C46.5314 946.6 66.6714 937.73 87.7614 932.86C98.5714 930.36 138.451 919.64 138.811 939.7C138.991 949.85 131.861 950.35 124.101 950.17C113.691 949.92 103.281 950.55 92.9814 952.07C70.0314 955.46 47.6714 962.98 28.1414 975.48C23.2914 978.66 19.4214 981.57 16.7614 983.69C15.4214 984.75 14.4114 985.6 13.6314 986.24C13.4614 986.38 12.4214 987.25 11.9214 987.55C11.6814 987.7 11.5614 987.78 11.5614 987.78C8.96137 989.44 5.50137 988.68 3.84137 986.08C2.27137 983.62 2.86137 980.4 5.13137 978.65L5.89137 978.07L5.90137 978.06Z" fill="url(#paint2_linear_458_2)"/>
<path style="mix-blend-mode:multiply" opacity="0.3" d="M3.96089 984.81L4.72089 984.23C4.72089 984.23 4.75089 984.21 4.79089 984.17C4.81089 984.15 4.85089 984.13 4.88089 984.1C4.90089 984.09 4.92089 984.07 4.94089 984.05C4.97089 984.03 4.99089 984.01 4.95089 984.03C4.83089 984.01 4.34089 984.41 4.87089 983.92C5.50089 983.3 6.53089 982.27 7.85089 981.02C10.4909 978.49 14.3909 974.96 19.3209 971.06C21.8109 969.13 24.5209 967.06 27.5009 965.01C45.3509 952.77 65.4909 943.9 86.5809 939.03C97.3609 936.54 137.091 925.86 137.621 945.74C138.421 944.26 138.851 942.3 138.801 939.71C138.441 919.65 98.5609 930.37 87.7509 932.87C66.6609 937.74 46.5209 946.61 28.6709 958.85C25.6909 960.89 22.9809 962.97 20.4909 964.9C15.5509 968.81 11.6609 972.33 9.02089 974.86C7.70089 976.12 6.67089 977.14 6.04089 977.76C5.51089 978.25 6.00089 977.85 6.12089 977.87C6.16089 977.86 6.14089 977.87 6.11089 977.89C6.09089 977.91 6.07089 977.92 6.05089 977.94C6.01089 977.97 5.98089 977.99 5.96089 978.01C5.91089 978.05 5.89089 978.07 5.89089 978.07L5.13089 978.65C3.10089 980.22 2.41089 982.97 3.42089 985.29C3.59089 985.12 3.76089 984.96 3.95089 984.81H3.96089Z" fill="url(#paint3_linear_458_2)"/>
<path d="M133.291 947.11C131.611 947.09 130.281 943.88 130.331 939.95C130.381 936.02 131.791 932.85 133.471 932.87C135.151 932.89 136.481 936.1 136.431 940.03C136.381 943.96 134.971 947.13 133.291 947.11Z" fill="#3A2F53"/>
<path d="M-3.49964 976.29C-3.49964 976.29 -3.43964 975.59 -3.31964 974.27C-3.19964 972.98 -2.98964 971.12 -2.70964 968.75C3.11036 920.22 19.5404 864.98 57.2204 831.38C64.3304 825.04 78.5504 811.71 86.8704 823.71C92.5004 831.84 84.4804 838.72 78.1604 843.52C51.8404 863.51 37.1104 890.24 25.6804 920.51C24.8704 922.84 24.0704 925.14 23.3204 927.42C21.8504 931.99 20.4704 936.43 19.3104 940.69C18.1104 944.94 17.1104 948.99 16.2004 952.74C15.3304 956.5 14.5604 959.95 13.9604 963.02C13.3304 966.09 12.8604 968.77 12.4704 970.98C12.1004 973.18 11.8304 974.92 11.6604 976.08C11.5004 977.22 11.4204 977.83 11.4204 977.83L11.3904 978.02C10.8204 982.12 7.03036 984.99 2.93036 984.42C-1.04964 983.87 -3.85964 980.27 -3.50964 976.31L-3.49964 976.29Z" fill="url(#paint4_linear_458_2)"/>
<path style="mix-blend-mode:multiply" opacity="0.3" d="M2.08012 975.7C2.08012 975.7 2.14012 975 2.26012 973.68C2.38012 972.39 2.59012 970.53 2.87012 968.16C8.69012 919.63 25.1201 864.39 62.8001 830.79C66.9401 827.1 73.5001 821.03 79.9101 818.99C72.0301 817.81 62.5901 826.59 57.2201 831.38C19.5501 864.98 3.12012 920.23 -2.70988 968.75C-2.98988 971.11 -3.19988 972.97 -3.31988 974.27C-3.43988 975.59 -3.49988 976.29 -3.49988 976.29C-3.84988 980.25 -1.03988 983.85 2.94012 984.4C4.57012 984.63 6.14012 984.3 7.49012 983.59C4.07012 982.61 1.76012 979.31 2.08012 975.7Z" fill="url(#paint5_linear_458_2)"/>
<path d="M7.13077 987.02C7.13077 987.02 7.15077 986.85 7.18077 986.53C7.22077 986.19 7.27077 985.7 7.35077 985.05C7.50077 983.81 7.74077 982.02 8.13077 979.79C15.3908 937.83 39.4208 900.85 74.0808 876.4C74.5408 876.11 74.9908 875.82 75.4508 875.53C84.6308 869.74 112.291 849.78 119.451 866.63C125.191 880.13 108.101 882.68 99.6508 886.49C89.2108 891.2 79.3708 897.22 70.3808 904.33C49.9608 920.47 34.8208 941.73 25.6208 966.01C23.1508 972.65 21.5308 978.34 20.5808 982.32C20.0908 984.31 19.7808 985.87 19.5808 986.91C19.4908 987.4 19.4208 987.78 19.3708 988.04C19.3308 988.31 19.3008 988.45 19.3008 988.45L19.2808 988.59C18.7308 991.93 15.5808 994.19 12.2508 993.64C9.06077 993.12 6.85077 990.2 7.14077 987.02H7.13077Z" fill="url(#paint6_linear_458_2)"/>
<path style="mix-blend-mode:multiply" opacity="0.3" d="M7.53158 985.07C14.7916 943.11 38.8216 906.13 73.4816 881.68C73.9416 881.39 74.3916 881.1 74.8516 880.81C84.0316 875.02 111.692 855.06 118.852 871.91C119.342 873.06 119.652 874.13 119.832 875.14C120.872 872.9 120.932 870.13 119.442 866.63C112.282 849.78 84.6216 869.74 75.4416 875.53C74.9916 875.82 74.5316 876.11 74.0716 876.4C39.4116 900.85 15.3816 937.83 8.12158 979.79C7.73158 982.03 7.49158 983.81 7.34158 985.05C7.27158 985.7 7.21158 986.2 7.17158 986.53C7.14158 986.85 7.12158 987.02 7.12158 987.02C7.10158 987.25 7.09158 987.48 7.10158 987.71C7.22158 986.92 7.36158 986.04 7.52158 985.06L7.53158 985.07Z" fill="url(#paint7_linear_458_2)"/>
<path d="M-3.7491 989.23C-3.7491 989.23 -3.8191 988.45 -3.9491 986.98C-4.0791 985.53 -4.2391 983.41 -4.4291 980.72C-6.8891 946.08 -6.7591 911.08 -1.8491 876.64C0.630899 859.27 4.3509 842.06 9.6909 825.34C13.0009 815 21.4209 779.67 38.3709 788.36C53.2609 796 35.0609 818.57 30.9909 828.42C15.8409 865.06 10.5809 904.63 8.1709 943.93C7.8509 949.09 7.6609 953.97 7.5009 958.48C7.2109 967.5 7.1709 975.02 7.2209 980.28C7.2509 982.9 7.2809 984.97 7.3209 986.36C7.3609 987.74 7.3809 988.48 7.3809 988.48V988.58C7.4809 991.66 5.0509 994.23 1.9709 994.32C-0.989101 994.41 -3.4791 992.16 -3.7491 989.25V989.23Z" fill="url(#paint8_linear_458_2)"/>
<path d="M41.7311 796.97C41.0811 798.53 37.6211 798.57 33.9911 797.06C30.3611 795.55 27.9411 793.07 28.5811 791.51C29.2311 789.95 32.6911 789.91 36.3211 791.42C39.9511 792.93 42.3711 795.41 41.7311 796.97Z" fill="#3A2F53"/>
<path d="M86.4814 832.23C85.1514 833.26 82.1213 831.59 79.7013 828.48C77.2913 825.38 76.4113 822.02 77.7413 820.99C79.0713 819.96 82.1013 821.63 84.5213 824.74C86.9313 827.84 87.8114 831.2 86.4814 832.23Z" fill="#3A2F53"/>
<path d="M116.181 876.3C114.581 876.83 112.281 874.24 111.041 870.51C109.801 866.78 110.091 863.32 111.691 862.79C113.291 862.26 115.591 864.85 116.831 868.58C118.071 872.31 117.781 875.77 116.181 876.3Z" fill="#3A2F53"/>
</g>
<g opacity="0.4" clip-path="url(#clip2_458_2)">
<g style="mix-blend-mode:multiply">
<path d="M158.897 551.217C157.165 549.592 154.6 547.517 151.533 546.099C151.36 545.702 150.424 543.644 148.916 542.71C147.235 541.673 140.963 543.454 137.774 545.079C135.712 546.134 134.482 547.621 133.875 548.52C132.246 549.695 130.895 550.923 129.924 551.891C128.001 550.093 124.726 547.534 121.226 546.808C121.226 546.808 120.065 551.649 123.08 553.949C120.082 556.248 121.226 561.089 121.226 561.089C124.882 560.329 128.278 557.562 130.167 555.782C132.94 558.496 138.433 562.939 144.775 562.939C144.792 562.939 144.827 562.939 144.844 562.939C144.792 562.974 144.723 563.009 144.688 563.026C143.787 563.458 139.316 563.233 137.982 562.853C136.648 562.473 136.076 563.285 136.076 563.285C136.682 564.236 135.643 564.53 135.435 565.049C135.227 565.568 135.729 566.294 135.729 566.294C141.188 566.328 144.775 563.7 145.901 563.182C146.074 563.112 146.265 562.974 146.473 562.818C151.758 562.179 156.298 558.686 158.915 556.214C160.353 554.848 160.353 552.566 158.915 551.217H158.897Z" fill="#5FDAE6"/>
</g>
<g style="mix-blend-mode:multiply">
<path d="M174.233 575.198C173.02 574.057 171.218 572.587 169.052 571.602C168.931 571.325 168.272 569.873 167.198 569.216C166.019 568.49 161.601 569.734 159.365 570.876C157.91 571.619 157.043 572.656 156.61 573.296C155.466 574.126 154.513 574.99 153.838 575.665C152.486 574.403 150.181 572.604 147.721 572.086C147.721 572.086 146.906 575.492 149.02 577.117C146.906 578.742 147.721 582.131 147.721 582.131C150.285 581.595 152.677 579.659 154.011 578.397C155.952 580.298 159.833 583.428 164.287 583.428C164.304 583.428 164.321 583.428 164.339 583.428C164.304 583.445 164.252 583.48 164.217 583.497C163.576 583.808 160.44 583.653 159.504 583.376C158.568 583.099 158.17 583.687 158.17 583.687C158.603 584.362 157.858 584.569 157.719 584.932C157.563 585.295 157.927 585.814 157.927 585.814C161.757 585.848 164.287 583.998 165.084 583.618C165.205 583.566 165.344 583.48 165.482 583.359C169.19 582.909 172.396 580.454 174.233 578.708C175.238 577.757 175.238 576.149 174.233 575.198Z" fill="#5FDAE6"/>
</g>
<g style="mix-blend-mode:multiply">
<path d="M254.013 572.812C252.436 571.325 250.097 569.44 247.307 568.161C247.151 567.798 246.284 565.931 244.915 565.083C243.39 564.132 237.655 565.758 234.778 567.227C232.889 568.178 231.78 569.544 231.226 570.374C229.736 571.446 228.505 572.57 227.622 573.452C225.872 571.826 222.891 569.475 219.703 568.818C219.703 568.818 218.646 573.227 221.383 575.319C218.646 577.411 219.703 581.82 219.703 581.82C223.03 581.128 226.131 578.604 227.847 576.979C230.377 579.451 235.385 583.497 241.155 583.497C241.172 583.497 241.207 583.497 241.224 583.497C241.172 583.532 241.12 583.549 241.086 583.584C240.254 583.981 236.199 583.774 234.969 583.428C233.739 583.082 233.236 583.826 233.236 583.826C233.791 584.69 232.838 584.967 232.647 585.434C232.456 585.9 232.924 586.575 232.924 586.575C237.897 586.609 241.172 584.206 242.195 583.739C242.351 583.67 242.524 583.549 242.715 583.411C247.532 582.823 251.673 579.641 254.047 577.394C255.364 576.149 255.364 574.074 254.047 572.847L254.013 572.812Z" fill="#5FDAE6"/>
</g>
<g style="mix-blend-mode:multiply">
<path d="M213.205 588.148C211.507 586.54 208.977 584.5 205.962 583.117C205.789 582.719 204.871 580.713 203.38 579.78C201.734 578.76 195.531 580.523 192.411 582.097C190.367 583.134 189.171 584.586 188.565 585.485C186.953 586.644 185.619 587.854 184.666 588.805C182.76 587.042 179.554 584.5 176.088 583.791C176.088 583.791 174.944 588.563 177.908 590.828C174.944 593.093 176.088 597.865 176.088 597.865C179.692 597.121 183.037 594.39 184.891 592.626C187.611 595.306 193.035 599.68 199.273 599.68C199.291 599.68 199.325 599.68 199.343 599.68C199.291 599.715 199.239 599.75 199.187 599.767C198.286 600.199 193.902 599.974 192.585 599.594C191.268 599.214 190.713 600.026 190.713 600.026C191.302 600.96 190.28 601.254 190.072 601.772C189.864 602.291 190.367 603 190.367 603C195.738 603.035 199.273 600.441 200.382 599.94C200.556 599.871 200.746 599.732 200.937 599.577C206.135 598.937 210.624 595.496 213.188 593.076C214.609 591.744 214.609 589.479 213.188 588.148H213.205Z" fill="#5FDAE6"/>
</g>
<g style="mix-blend-mode:multiply">
<path d="M194.525 532.094C192.74 530.417 190.089 528.273 186.918 526.804C186.744 526.389 185.774 524.279 184.214 523.311C182.481 522.239 175.983 524.089 172.708 525.749C170.577 526.838 169.295 528.377 168.671 529.311C166.99 530.521 165.586 531.801 164.581 532.786C162.589 530.936 159.21 528.273 155.588 527.53C155.588 527.53 154.392 532.527 157.494 534.913C154.392 537.299 155.588 542.295 155.588 542.295C159.365 541.517 162.866 538.665 164.824 536.815C167.683 539.616 173.367 544.215 179.9 544.215C179.917 544.215 179.952 544.215 179.969 544.215C179.917 544.249 179.848 544.284 179.796 544.301C178.86 544.751 174.251 544.526 172.864 544.128C171.478 543.73 170.889 544.578 170.889 544.578C171.513 545.563 170.438 545.874 170.213 546.41C169.988 546.946 170.525 547.707 170.525 547.707C176.157 547.759 179.865 545.027 181.026 544.491C181.199 544.405 181.407 544.284 181.615 544.111C187.074 543.437 191.769 539.84 194.473 537.281C195.963 535.881 195.963 533.512 194.473 532.112L194.525 532.094Z" fill="#5FDAE6"/>
</g>
<g style="mix-blend-mode:multiply">
<path d="M219.235 556.075C217.485 554.416 214.868 552.324 211.767 550.888C211.593 550.491 210.64 548.399 209.098 547.465C207.4 546.41 201.023 548.226 197.8 549.868C195.703 550.94 194.456 552.445 193.832 553.361C192.168 554.554 190.799 555.799 189.829 556.784C187.871 554.969 184.561 552.358 180.991 551.615C180.991 551.615 179.813 556.525 182.863 558.859C179.813 561.193 180.991 566.104 180.991 566.104C184.7 565.325 188.148 562.525 190.072 560.709C192.879 563.458 198.458 567.971 204.887 567.971C204.905 567.971 204.939 567.971 204.957 567.971C204.905 568.005 204.835 568.04 204.801 568.057C203.882 568.49 199.36 568.282 197.991 567.884C196.622 567.487 196.05 568.317 196.05 568.317C196.656 569.285 195.617 569.579 195.391 570.115C195.166 570.651 195.703 571.377 195.703 571.377C201.231 571.429 204.887 568.749 206.031 568.23C206.204 568.144 206.395 568.023 206.603 567.867C211.957 567.21 216.584 563.666 219.235 561.159C220.691 559.775 220.691 557.459 219.235 556.093V556.075Z" fill="#5FDAE6"/>
</g>
</g>
<g clip-path="url(#clip3_458_2)">
<path d="M884.805 869.756C884.805 869.756 897.851 831.292 906.792 816.124C916.097 800.321 919.815 803.493 917.734 808.352C915.653 813.211 891.518 870.881 891.518 870.881L884.801 869.765L884.805 869.756Z" fill="#D17FB6"/>
<path d="M908.134 817.208C907.291 816.699 906.493 818.001 907.344 818.515C908.186 819.023 908.985 817.722 908.134 817.208Z" fill="#E88DCA"/>
<path d="M911.565 815.406C911.313 814.939 910.76 814.704 910.247 814.822C910.096 814.859 909.949 814.888 909.806 814.93C909.003 815.118 908.603 816.058 908.987 816.778C909.403 817.547 910.338 817.589 910.985 817.103L911.34 816.831C911.748 816.517 911.798 815.841 911.569 815.419L911.565 815.406Z" fill="#E88DCA"/>
<path d="M904.644 826.986C903.775 826.464 902.967 827.806 903.828 828.324C904.697 828.846 905.504 827.503 904.644 826.986Z" fill="#E88DCA"/>
<path d="M907.901 820.986C907.555 820.507 906.884 820.448 906.437 820.842C906.397 820.878 906.361 820.905 906.322 820.942C905.968 821.259 905.938 821.823 906.207 822.186C906.511 822.59 906.977 822.66 907.426 822.467L907.569 822.403C908.121 822.182 908.201 821.398 907.887 820.968L907.901 820.986Z" fill="#E88DCA"/>
<path d="M917.734 808.352C918.6 806.316 918.459 804.591 917.312 804.412C917.101 807.433 914.567 809.105 913.306 812.183C912.475 814.192 912.722 816.524 911.918 818.546C910.994 820.909 908.777 822.545 907.604 824.8C906.109 827.675 906.455 831.222 905.049 834.141C904.219 835.851 902.849 837.231 901.947 838.905C900.363 841.849 900.365 845.507 898.475 848.258C897.683 849.407 896.607 850.319 895.775 851.438C893.705 854.191 893.288 857.89 891.367 860.748C890.98 861.316 890.419 861.899 889.747 861.795C889.321 861.733 889 861.411 888.67 861.128C888.462 860.938 888.228 860.78 888.007 860.617C886.028 866.115 884.787 869.77 884.787 869.77L891.504 870.885C891.504 870.885 915.639 813.216 917.72 808.356L917.734 808.352Z" fill="#B5699D"/>
<path d="M956.298 868.576C956.702 866.827 949.961 862.921 945.564 860.576C958.321 858.753 966.294 859.022 958.602 855.288C954.455 853.275 948.861 852.639 942.999 852.739C947.414 849.735 953.319 845.31 951.818 843.981C950.255 842.6 941.124 848.906 935.214 853.251C930.309 853.783 925.579 854.643 921.684 855.476C943.796 837.586 969.954 822.282 958.146 822.564C941.705 822.954 893.483 870.088 893.483 870.088L898.984 875.815L902.917 880.148C909.276 873.275 917.193 867.958 926.071 864.964C929.528 863.797 932.988 862.897 936.334 862.187C943.033 865.127 955.851 870.482 956.289 868.572L956.298 868.576Z" fill="#D17FB6"/>
<path d="M940.831 855.054C939.705 854.374 938.648 856.118 939.774 856.798C940.9 857.478 941.957 855.734 940.831 855.054Z" fill="#E88DCA"/>
<path d="M946.457 853.861C945.151 853.071 943.913 855.094 945.229 855.888C946.535 856.678 947.772 854.655 946.457 853.861Z" fill="#E88DCA"/>
<path d="M942.001 831.346C941.109 830.801 940.258 832.189 941.159 832.737C942.051 833.282 942.902 831.894 942.001 831.346Z" fill="#E88DCA"/>
<path d="M948.336 827.64C946.935 826.793 945.601 828.969 947.011 829.82C948.411 830.666 949.745 828.491 948.336 827.64Z" fill="#E88DCA"/>
<path d="M932.005 839.755C931.05 839.18 930.155 840.658 931.11 841.232C932.064 841.807 932.96 840.33 932.005 839.755Z" fill="#E88DCA"/>
<path d="M916.335 858.071C916.443 857.689 916.416 857.309 916.273 856.962C916.129 856.503 915.811 856.104 915.3 855.99C914.641 855.836 914.04 856.089 913.653 856.635C913.618 856.685 913.587 856.725 913.561 856.779C913.163 857.576 913.36 858.36 914.082 858.889C914.1 858.897 914.127 858.91 914.14 858.928C914.934 859.514 916.09 858.919 916.335 858.071Z" fill="#E88DCA"/>
<path d="M937.539 836.005C936.868 835.601 935.873 835.796 935.492 836.512C935.102 837.223 935.274 838.129 935.999 838.559C936.67 838.962 937.665 838.767 938.046 838.052C938.436 837.34 938.264 836.434 937.539 836.005Z" fill="#E88DCA"/>
<path d="M925.979 845.367C925.146 844.863 924.365 846.151 925.198 846.655C926.031 847.16 926.812 845.872 925.979 845.367Z" fill="#E88DCA"/>
<path d="M945.643 860.848C944.923 860.409 944.234 861.531 944.963 861.974C945.684 862.413 946.373 861.291 945.643 860.848Z" fill="#E88DCA"/>
<path d="M951.921 854.535C950.881 853.908 949.902 855.511 950.938 856.148C951.979 856.775 952.957 855.171 951.921 854.535Z" fill="#E88DCA"/>
<path d="M934.749 854.849C933.83 854.291 932.961 855.715 933.88 856.272C934.799 856.829 935.668 855.406 934.749 854.849Z" fill="#E88DCA"/>
<path d="M930.477 854.63C929.499 854.034 928.569 855.561 929.546 856.158C930.524 856.754 931.454 855.227 930.477 854.63Z" fill="#E88DCA"/>
<path d="M920.217 850.551C919.573 850.161 918.954 851.161 919.607 851.556C920.251 851.946 920.87 850.946 920.217 850.551Z" fill="#E88DCA"/>
<path d="M928.914 841.612C928.252 841.212 927.633 842.235 928.296 842.634C928.958 843.033 929.576 842.011 928.914 841.612Z" fill="#E88DCA"/>
<path d="M921.296 854.81C921.487 855.058 921.757 855.167 922.052 855.177C942.237 838.897 965.592 824.834 960.327 822.811C960.422 823.28 960.454 823.763 960.281 824.257C959.822 825.523 958.593 826.361 957.363 826.764C956.174 827.154 954.86 827.227 953.808 827.906C952.103 829.013 951.639 831.389 950.031 832.642C948.395 833.905 945.987 833.714 944.333 834.945C943.131 835.841 942.536 837.341 941.434 838.352C939.359 840.246 935.98 840.017 933.841 841.835C932.172 843.259 931.574 845.704 929.791 846.995C928.386 848.013 926.428 848.153 925.222 849.401C924.489 850.157 924.134 851.23 923.337 851.91C922.828 852.341 922.183 852.595 921.687 853.043C921.191 853.492 920.888 854.3 921.301 854.823L921.296 854.81Z" fill="#B5699D"/>
<path d="M955.457 857.186C953.923 857.208 952.84 859.028 951.314 858.965C950.54 858.934 949.868 858.419 949.093 858.321C947.718 858.153 946.591 859.352 945.723 860.431C945.777 860.457 945.818 860.488 945.867 860.523C956.079 859.088 963.13 858.965 961.327 856.978C961.301 857.032 961.266 857.082 961.221 857.127C960.511 857.972 959.35 858.486 958.251 858.186C957.281 857.916 956.45 857.156 955.443 857.168L955.457 857.186Z" fill="#B5699D"/>
<path d="M943.31 852.512C947.356 849.74 952.432 845.902 952.015 844.31C951.831 844.576 951.623 844.82 951.339 844.993C950.509 845.49 949.451 845.355 948.662 845.928C947.802 846.555 947.634 847.841 946.796 848.49C946.06 849.067 944.991 849.003 944.187 849.469C943.445 849.898 943.034 850.699 942.64 851.464C942.514 851.725 942.379 852.049 942.525 852.297C942.675 852.559 942.993 852.569 943.31 852.512Z" fill="#B5699D"/>
<path d="M953.794 868.149C952.634 867.286 951.726 866.09 950.439 865.443C948.72 864.564 946.581 864.804 944.888 863.871C943.115 862.899 942.083 860.787 940.17 860.125C939.066 859.744 937.847 859.92 936.703 859.665C934.654 859.215 932.902 857.397 930.821 857.632C928.493 857.892 927.102 860.551 924.828 861.137C923.129 861.569 921.277 860.736 919.611 861.283C917.931 861.835 916.857 863.659 915.126 864.042C914.082 864.269 913.009 863.915 911.95 863.968C910.081 864.061 908.518 865.336 906.805 866.094C904.411 867.156 901.714 867.192 899.129 867.549C897.709 867.749 896.242 868.092 894.947 868.698C894.01 869.599 893.488 870.102 893.488 870.102L898.989 875.829L902.922 880.161C909.282 873.288 917.198 867.971 926.077 864.978C929.534 863.81 932.994 862.911 936.34 862.2C942.206 864.77 952.782 869.203 955.593 868.978C954.924 868.776 954.286 868.533 953.78 868.154L953.794 868.149Z" fill="#B5699D"/>
<path d="M941.603 886.531C942.074 885.537 941.715 884.33 940.765 883.768C929.253 876.958 919.407 874.824 911.958 874.598C919.848 868.235 930.267 859.32 928.825 857.62C926.444 854.808 914.125 862.667 905.245 868.939C915.226 850.185 929.6 823.526 926.668 822.147C922.405 820.144 905.158 847.043 903.676 848.425C902.193 849.806 903.372 818.065 896.247 819.92C889.122 821.774 896.57 858.804 892.297 862.866C888.025 866.928 861.262 824.302 854.027 828.605C846.791 832.907 878.818 866.727 882.445 870.522C886.081 874.321 883.95 880.612 883.95 880.612L896.403 886.468C908.184 880.037 932.395 885.897 939.08 887.697C940.094 887.967 941.153 887.48 941.603 886.531Z" fill="#F2B4D3"/>
<path d="M901.677 855.792C900.277 854.945 898.942 857.121 900.352 857.972C901.753 858.819 903.087 856.643 901.677 855.792Z" fill="#FFD4E2"/>
<path d="M906.886 850.194C905.377 849.272 903.946 851.624 905.455 852.545C906.964 853.467 908.395 851.115 906.886 850.194Z" fill="#FFD4E2"/>
<path d="M875.822 851.856C874.115 850.816 872.491 853.474 874.212 854.509C875.919 855.549 877.543 852.891 875.822 851.856Z" fill="#FFD4E2"/>
<path d="M861.267 833.887C860.348 833.33 859.479 834.753 860.398 835.31C861.317 835.867 862.186 834.444 861.267 833.887Z" fill="#FFD4E2"/>
<path d="M865.391 838.923C864.86 838.599 864.355 839.432 864.891 839.748C865.423 840.072 865.927 839.239 865.391 838.923Z" fill="#FFD4E2"/>
<path d="M880.229 858.486L880.169 858.379C879.654 857.518 878.387 857.425 877.843 858.317C877.299 859.209 877.96 860.297 878.967 860.352C879.012 860.352 879.043 860.356 879.088 860.355C880.028 860.411 880.712 859.276 880.233 858.477L880.229 858.486Z" fill="#FFD4E2"/>
<path d="M871.351 847.919C870.793 847.581 870.275 848.442 870.833 848.779C871.392 849.117 871.91 848.257 871.351 847.919Z" fill="#FFD4E2"/>
<path d="M878.975 854.999C878.281 854.573 877.619 855.663 878.317 856.08C879.011 856.506 879.673 855.415 878.975 854.999Z" fill="#FFD4E2"/>
<path d="M897.396 837.04C896.162 836.285 894.986 838.204 896.229 838.963C897.464 839.718 898.64 837.799 897.396 837.04Z" fill="#FFD4E2"/>
<path d="M896.243 823.341C895.684 823.003 895.153 823.868 895.707 824.215C896.266 824.553 896.797 823.688 896.243 823.341Z" fill="#FFD4E2"/>
<path d="M912.098 841.975C911.951 841.637 911.671 841.412 911.304 841.345C910.34 841.177 909.779 842.15 910.352 842.917C910.574 843.214 910.898 843.348 911.269 843.34C911.993 843.313 912.396 842.62 912.102 841.966L912.098 841.975Z" fill="#FFD4E2"/>
<path d="M917.263 834.4C917.263 834.4 917.201 834.414 917.165 834.419C916.897 834.467 916.691 834.801 916.775 835.064C916.784 835.09 916.798 835.13 916.807 835.157C916.965 835.656 917.642 835.818 917.945 835.332C918.234 834.85 917.781 834.318 917.263 834.4Z" fill="#FFD4E2"/>
<path d="M897.85 849.732C897.282 849.39 896.444 849.561 896.111 850.155C895.787 850.754 895.926 851.521 896.534 851.894C897.101 852.236 897.94 852.066 898.273 851.471C898.597 850.873 898.458 850.105 897.85 849.732Z" fill="#FFD4E2"/>
<path d="M900.796 853.485C900.188 853.112 899.604 854.063 900.222 854.44C900.83 854.813 901.413 853.863 900.796 853.485Z" fill="#FFD4E2"/>
<path d="M898.245 846.123C897.543 845.692 896.876 846.792 897.578 847.222C898.281 847.652 898.948 846.553 898.245 846.123Z" fill="#FFD4E2"/>
<path d="M897.208 863.215C896.622 862.864 895.752 863.031 895.406 863.652C895.069 864.278 895.217 865.072 895.843 865.454C896.428 865.805 897.299 865.638 897.645 865.017C897.982 864.391 897.834 863.597 897.208 863.215Z" fill="#FFD4E2"/>
<path d="M916.144 864.781C915.387 864.325 914.677 865.492 915.429 865.957C916.186 866.413 916.897 865.247 916.144 864.781Z" fill="#FFD4E2"/>
<path d="M921.057 861.808C921.309 861.152 920.322 860.551 919.863 861.084L919.771 861.183C919.453 861.54 919.455 862.108 919.896 862.367C920.333 862.635 920.836 862.378 921.009 861.929L921.066 861.812L921.057 861.808Z" fill="#FFD4E2"/>
<path d="M907.311 873.065C907.216 872.941 906.876 872.543 907.144 872.929C907.126 872.92 907.104 872.898 907.09 872.88C906.922 872.654 906.71 872.473 906.418 872.387C905.911 872.241 905.363 872.431 905.032 872.837C904.732 873.203 904.653 873.687 904.824 874.137C905.022 874.667 905.486 874.925 906.032 874.99C906.176 875.015 906.323 875.009 906.466 874.967C906.328 874.978 906.35 874.977 906.524 874.962C906.81 874.9 907.055 874.83 907.262 874.587C907.677 874.099 907.689 873.571 907.307 873.052L907.311 873.065Z" fill="#FFD4E2"/>
<path d="M921.317 877.507C920.52 877.02 919.761 878.264 920.558 878.751C921.355 879.238 922.115 877.994 921.317 877.507Z" fill="#FFD4E2"/>
<path d="M926.244 878.532C925.582 878.133 924.95 879.16 925.621 879.563C926.283 879.962 926.915 878.935 926.244 878.532Z" fill="#FFD4E2"/>
<path d="M915.78 876.41C915.267 876.094 914.775 876.9 915.289 877.216C915.803 877.532 916.294 876.726 915.78 876.41Z" fill="#FFD4E2"/>
<path d="M896.35 871.714C896.35 871.714 896.327 871.714 896.314 871.719C895.514 871.741 894.798 872.483 895.036 873.321L895.041 873.357C895.334 874.378 896.658 874.72 897.341 873.862C897.985 873.063 897.454 871.683 896.345 871.723L896.35 871.714Z" fill="#FFD4E2"/>
<path d="M890.109 867.583C889.199 867.03 888.348 868.44 889.257 868.993C890.167 869.546 891.018 868.136 890.109 867.583Z" fill="#FFD4E2"/>
<path d="M939.089 887.701C940.103 887.971 941.161 887.485 941.611 886.536C941.755 886.239 941.805 885.93 941.81 885.621C941.395 886.042 940.93 886.472 940.107 886.473C939.083 886.476 938.129 885.968 937.269 885.428C935.173 884.111 933.204 882.421 930.783 881.936C927.793 881.34 924.624 882.715 921.677 881.917C918.554 881.069 916.164 877.908 912.932 877.995C911.188 878.038 909.554 879.068 907.818 879.003C905.657 878.921 903.65 877.169 901.541 877.646C900.055 877.981 899.011 879.33 897.572 879.821C897.358 879.895 897.14 879.934 896.925 879.963C894.241 876.815 889.569 875.859 886.862 872.688C884.935 870.43 884.267 867.316 882.407 865.012C879.497 861.411 874.24 860.426 871.233 856.91C867.891 853.009 868.143 847.04 865.129 842.876C862.751 839.598 858.675 837.898 856.226 834.675C855.172 833.296 854.719 830.542 853.499 829.072C848.697 834.911 878.94 866.842 882.467 870.522C886.103 874.321 883.972 880.612 883.972 880.612L896.425 886.467C908.206 880.036 932.417 885.897 939.102 887.697L939.089 887.701Z" fill="#E68AD0"/>
<path d="M911.84 874.13C911.957 874.232 912.131 874.216 912.288 874.192C912.359 874.182 912.435 874.163 912.52 874.149C920.335 867.827 930.244 859.276 928.838 857.615C928.751 857.518 928.657 857.438 928.557 857.368C928.555 857.511 928.53 857.677 928.46 857.865C928.032 859.069 926.711 859.684 925.481 860.065C924.251 860.446 922.909 860.784 922.111 861.786C921.106 863.055 921.233 865.084 919.916 866.034C919.162 866.58 918.151 866.578 917.292 866.928C916.268 867.343 915.474 868.291 915.241 869.367C915.169 869.699 915.137 870.062 914.939 870.332C914.42 871.036 913.266 870.665 912.497 871.081C911.635 871.552 911.604 872.76 911.696 873.738C911.707 873.877 911.727 874.042 911.84 874.13Z" fill="#E68AD0"/>
<path d="M918.987 836.437C918.081 837.365 916.627 837.704 915.956 838.812C915.46 839.627 915.53 840.651 915.568 841.603C915.644 843.485 915.511 845.499 914.366 846.989C913.141 848.573 910.866 849.414 910.343 851.338C910.175 851.957 910.223 852.614 910.209 853.263C910.147 856.001 908.917 858.694 906.877 860.516C905.992 861.309 904.896 862.056 904.682 863.23C904.522 864.108 904.922 865.025 904.753 865.899C904.66 866.365 904.41 866.789 904.317 867.255C904.225 867.721 904.357 868.297 904.806 868.47C905.057 868.57 905.321 868.509 905.552 868.377C914.531 851.504 926.843 828.612 927.057 823.247C927.04 823.306 927.031 823.368 927.014 823.427C926.553 824.881 925.253 826.162 923.91 826.822C923.221 827.165 922.459 827.385 921.86 827.861C919.432 829.795 921.171 834.229 918.996 836.442L918.987 836.437Z" fill="#E68AD0"/>
<path d="M898.271 820.401C898.471 821.11 898.811 821.875 898.655 822.678C898.411 823.937 897.717 825.068 897.185 826.233C896.653 827.397 896.276 828.748 896.697 829.964C897.179 831.376 898.584 832.236 899.519 833.401C900.999 835.253 901.179 838.042 899.947 840.078C899.482 840.853 898.815 841.563 898.736 842.458C898.617 843.801 899.846 844.843 900.933 845.648C902.025 846.445 903.232 847.531 903.051 848.866C903.224 848.739 903.374 848.589 903.533 848.444C902.399 847.782 902.964 824.335 898.262 820.397L898.271 820.401Z" fill="#E68AD0"/>
</g>
<defs>
<linearGradient id="paint0_linear_458_2" x1="1866.14" y1="620.45" x2="1866.14" y2="799.31" gradientUnits="userSpaceOnUse">
<stop stop-color="#975DA5"/>
<stop offset="1" stop-color="#745DA5"/>
</linearGradient>
<linearGradient id="paint1_linear_458_2" x1="1866.82" y1="641" x2="1866.82" y2="797.39" gradientUnits="userSpaceOnUse">
<stop stop-color="#975DA5"/>
<stop offset="1" stop-color="#745DA5"/>
</linearGradient>
<linearGradient id="paint2_linear_458_2" x1="135.561" y1="930.84" x2="-15.0586" y2="987.53" gradientUnits="userSpaceOnUse">
<stop stop-color="#975DA5"/>
<stop offset="1" stop-color="#745DA5"/>
</linearGradient>
<linearGradient id="paint3_linear_458_2" x1="135.241" y1="930" x2="-15.3691" y2="986.68" gradientUnits="userSpaceOnUse">
<stop stop-color="#975DA5"/>
<stop offset="1" stop-color="#745DA5"/>
</linearGradient>
<linearGradient id="paint4_linear_458_2" x1="87.5104" y1="808.82" x2="-20.8696" y2="992.23" gradientUnits="userSpaceOnUse">
<stop stop-color="#975DA5"/>
<stop offset="1" stop-color="#745DA5"/>
</linearGradient>
<linearGradient id="paint5_linear_458_2" x1="86.6601" y1="809.15" x2="-21.3099" y2="991.89" gradientUnits="userSpaceOnUse">
<stop stop-color="#975DA5"/>
<stop offset="1" stop-color="#745DA5"/>
</linearGradient>
<linearGradient id="paint6_linear_458_2" x1="112.691" y1="877.86" x2="-2.90924" y2="974.57" gradientUnits="userSpaceOnUse">
<stop stop-color="#975DA5"/>
<stop offset="1" stop-color="#745DA5"/>
</linearGradient>
<linearGradient id="paint7_linear_458_2" x1="109.582" y1="873.98" x2="-5.07842" y2="969.9" gradientUnits="userSpaceOnUse">
<stop stop-color="#975DA5"/>
<stop offset="1" stop-color="#745DA5"/>
</linearGradient>
<linearGradient id="paint8_linear_458_2" x1="35.3509" y1="818.46" x2="-19.1191" y2="999.09" gradientUnits="userSpaceOnUse">
<stop stop-color="#975DA5"/>
<stop offset="1" stop-color="#745DA5"/>
</linearGradient>
<clipPath id="clip0_458_2">
<rect width="133.45" height="260" fill="white" transform="translate(1801 524)"/>
</clipPath>
<clipPath id="clip1_458_2">
<rect width="144.81" height="207.31" fill="white" transform="translate(-6 787)"/>
</clipPath>
<clipPath id="clip2_458_2">
<rect width="134" height="80" fill="white" transform="translate(121 523)"/>
</clipPath>
<clipPath id="clip3_458_2">
<rect width="109.82" height="85.35" fill="white" transform="translate(876.27 782) rotate(25.8916)"/>
</clipPath>
</defs>
</svg>
