<svg width="1920" height="61" viewBox="0 0 1920 61" fill="none" xmlns="http://www.w3.org/2000/svg">
<path fill-rule="evenodd" clip-rule="evenodd" d="M136.971 26.84C102.75 26.84 85.6176 20.13 68.4855 13.42C51.3534 6.71 34.2213 0 0 0V61H274H549H823H1097H1371H1646H1920V0C1885.78 0 1868.63 6.71 1851.49 13.42C1834.34 20.13 1817.19 26.84 1782.97 26.84C1748.75 26.84 1731.62 20.13 1714.49 13.42C1697.35 6.71001 1680.22 0 1646 0C1611.65 0 1594.44 6.71 1577.24 13.42C1560.03 20.13 1542.82 26.84 1508.47 26.84C1474.12 26.84 1456.93 20.13 1439.74 13.42C1422.54 6.71001 1405.35 0 1371 0C1336.78 0 1319.63 6.71 1302.49 13.42C1285.34 20.13 1268.19 26.84 1233.97 26.84C1199.75 26.84 1182.62 20.13 1165.49 13.42C1148.35 6.71001 1131.22 0 1097 0C1062.78 0 1045.63 6.71 1028.49 13.42C1011.34 20.13 994.192 26.84 959.971 26.84C925.75 26.84 908.618 20.13 891.485 13.42C874.353 6.71 857.221 0 823 0C788.779 0 771.632 6.71 754.485 13.42C737.339 20.13 720.192 26.84 685.971 26.84C651.75 26.84 634.618 20.13 617.485 13.42C600.353 6.71 583.221 0 549 0C514.654 0 497.445 6.71 480.235 13.42C463.026 20.13 445.817 26.84 411.471 26.84C377.125 26.84 359.93 20.13 342.735 13.42C325.541 6.71 308.346 0 274 0C239.779 0 222.632 6.71 205.486 13.42C188.339 20.13 171.192 26.84 136.971 26.84Z" fill="#EFF2FB"/>
</svg>
